# xmcd CD database file
#
# Track frame offsets:
#	150
#	56391
#	80497
#	106114
#	131143
#	168936
#	202836
#	213121
#	244606
#	270044
#
# Disc length: 4226 seconds
#
# Revision: 0
# Processed by: cddbd v1.5.2PL0 Copyright (c) Steve Scherf et al.
# Submitted via: CDex 1.51
#
DISCID=7410800a
DTITLE=Dave Brubeck - 50 Years of Dave Brubeck: Live at the Monterey Jazz Festival
DYEAR=2008
DGENRE=Jazz
TTITLE0=Two Part Contention
TTITLE1=Someday My Prince Will Come
TTITLE2=Take Five
TTITLE3=Sermon on the Mount
TTITLE4=Jumping Bean
TTITLE5=Tritonis
TTITLE6=Goodbye Old Friend
TTITLE7=I Got Rhythm
TTITLE8=Sleep
TTITLE9=Margie
EXTD=YEAR: 2008
EXTT0=
EXTT1=
EXTT2=
EXTT3=
EXTT4=
EXTT5=
EXTT6=
EXTT7=
EXTT8=
EXTT9=
PLAYORDER=
